<?xml version="1.0" standalone="no"?>
<!DOCTYPE svg PUBLIC "-//W3C//DTD SVG 20010904//EN"
 "http://www.w3.org/TR/2001/REC-SVG-20010904/DTD/svg10.dtd">
<svg version="1.0" xmlns="http://www.w3.org/2000/svg"
 width="400.000000pt" height="400.000000pt" viewBox="0 0 400.000000 400.000000"
 preserveAspectRatio="xMidYMid meet">
<metadata>
Created by potrace 1.11, written by Peter Selinger 2001-2013
</metadata>
<g transform="translate(0.000000,400.000000) scale(0.100000,-0.100000)"
fill="#000000" stroke="none">
<path d="M419 3874 c-79 -64 -201 -161 -271 -216 -101 -78 -129 -106 -135
-131 -4 -18 -6 -803 -3 -1745 l5 -1714 33 -29 32 -29 1915 0 c1425 0 1921 3
1939 12 14 6 34 23 43 37 17 25 18 121 21 1726 1 935 0 1715 -3 1733 -5 25
-22 46 -78 91 -40 32 -161 131 -271 220 l-198 161 -1442 0 -1442 0 -145 -116z
m3037 -179 c52 -42 94 -79 94 -83 0 -4 -695 -7 -1545 -7 -1024 0 -1545 3
-1544 10 0 6 42 42 92 82 l92 71 1359 1 1359 1 93 -75z m314 -1890 l0 -1575
-1770 0 -1770 0 0 1575 0 1575 1770 0 1770 0 0 -1575z"/>
<path d="M1735 3244 c-282 -28 -477 -65 -662 -125 -235 -77 -389 -176 -440
-284 -22 -48 -23 -60 -23 -285 0 -129 5 -251 10 -271 44 -160 333 -308 744
-383 221 -41 345 -50 641 -50 296 0 420 9 641 50 411 75 700 223 744 383 14
52 13 484 -2 535 -19 65 -123 161 -234 218 -165 83 -423 155 -695 193 -109 16
-624 29 -724 19z"/>
<path d="M3388 1981 c-13 -57 -136 -169 -246 -224 -164 -82 -398 -145 -672
-182 -158 -22 -589 -31 -765 -16 -550 46 -953 191 -1066 384 l-30 52 3 -210
c4 -241 8 -255 95 -336 150 -140 413 -231 842 -291 130 -18 204 -22 446 -22
357 -1 588 25 851 94 216 57 374 133 469 227 81 79 86 100 83 348 -2 123 -6
196 -10 176z"/>
<path d="M3392 1294 c-3 -28 -52 -102 -93 -140 -164 -153 -517 -260 -1001
-305 -161 -15 -579 -6 -747 15 -478 61 -832 207 -921 381 l-20 40 0 -200 c0
-191 1 -202 24 -250 29 -60 47 -80 106 -127 183 -142 552 -244 1005 -278 688
-50 1424 111 1601 352 50 67 55 97 52 323 -2 116 -4 201 -6 189z"/>
</g>
</svg>
